# xmcd
#
# Track frame offsets: 
#        150
#        14611
#        36479
#        50644
#        74908
#        96506
#        113455
#        135049
#        157773
#        169163
#        194271
#        214804
#        231617
#        243499
#
# Disc length: 3481 seconds
#
# Revision: 0
# Processed by: cddbd v1.5.1PL2 Copyright (c) Steve Scherf et al.
# Submitted via: ExactAudioCopy v0.95b4
#
DISCID=cb0d970e
DTITLE=Jüri Rosenfeld - Blues museum
DYEAR=2003
DGENRE=Blues
TTITLE0=Blind man blues
TTITLE1=Bleeding heart
TTITLE2=Glad to meet you
TTITLE3=Sad and lonely
TTITLE4=Night blues
TTITLE5=Stop talkin' to my girl
TTITLE6=Cut this crap
TTITLE7=Whiskey-drinkin' man
TTITLE8=Drink Coca-Cola
TTITLE9=Crazy love
TTITLE10=Got my mojo workin'
TTITLE11=Nobody knows when you're down and out
TTITLE12=Crazy baldhead
TTITLE13=Hard ridin' papa
EXTD=
EXTT0=
EXTT1=
EXTT2=
EXTT3=
EXTT4=
EXTT5=
EXTT6=
EXTT7=
EXTT8=
EXTT9=
EXTT10=
EXTT11=
EXTT12=
EXTT13=
PLAYORDER=
